# [Ŀ] LATIN CAPITAL LETTER L WITH MIDDLE DOT
u+013f:
    ........
    ........
    ........
    @@@@....
    .@@.....
    .@@..@@.
    .@@..@@.
    .@@.....
    .@@.....
    .@@...@.
    .@@..@@.
    @@@@@@@.
    ........
    ........


# [ƀ] LATIN SMALL LETTER B WITH STROKE
u+0180:
    ........
    ........
    ........
    .@@.....
    @@@@@...
    .@@.....
    .@@@@...
    .@@.@@..
    .@@..@@.
    .@@..@@.
    .@@..@@.
    .@@@@@..
    ........
    ........

# [Ƃ] LATIN CAPITAL LETTER B WITH TOPBAR
u+0182:
    ........
    ........
    ........
    @@@@@@..
    .@@..@..
    .@@.....
    .@@.....
    .@@@@@..
    .@@..@@.
    .@@..@@.
    .@@..@@.
    @@@@@@..
    ........
    ........

# [ƃ] LATIN SMALL LETTER B WITH TOPBAR
u+0183:
    ........
    ........
    ........
    .@@@@@@.
    .@@...@.
    .@@.....
    .@@@@...
    .@@.@@..
    .@@..@@.
    .@@..@@.
    .@@..@@.
    .@@@@@..
    ........
    ........

# [Ƈ] LATIN CAPITAL LETTER C WITH HOOK
u+0187:
    ........
    ........
    ......@@
    ..@@@@@.
    .@@..@@.
    @@....@.
    @@......
    @@......
    @@......
    @@....@.
    .@@..@@.
    ..@@@@..
    ........
    ........

# [ƈ] LATIN SMALL LETTER C WITH HOOK
u+0188:
    ........
    ........
    ........
    ........
    ........
    ......@@
    .@@@@@@.
    @@...@@.
    @@......
    @@......
    @@...@@.
    .@@@@@..
    ........
    ........

# [Ƌ] LATIN CAPITAL LETTER D WITH TOPBAR
u+018b:
    ........
    ........
    ........
    .@@@@@@.
    .@..@@..
    ....@@..
    ....@@..
    .@@@@@..
    @@..@@..
    @@..@@..
    @@..@@..
    .@@@@@@.
    ........
    ........

# [ƌ] LATIN SMALL LETTER D WITH TOPBAR
u+018c:
    ........
    ........
    ........
    .@@@@@..
    .@..@@..
    ....@@..
    ..@@@@..
    .@@.@@..
    @@..@@..
    @@..@@..
    @@..@@..
    .@@@.@@.
    ........
    ........


# [Ɠ] LATIN CAPITAL LETTER G WITH HOOK
u+0193:
    ........
    ........
    ......@@
    ..@@@@@.
    .@@..@@.
    @@....@.
    @@......
    @@......
    @@.@@@@.
    @@...@@.
    .@@..@@.
    ..@@@.@.
    ........
    ........

# [ƕ] LATIN SMALL LETTER HV
u+0195:
    ........
    ........
    ........
    @@......
    @@......
    @@......
    @@@@..@@
    @@.@@.@@
    @@.@@.@@
    @@.@@.@@
    @@.@@.@@
    @@..@@@.
    ........
    ........

# [ƞ] LATIN SMALL LETTER N WITH LONG RIGHT LEG
u+019e:
    ........
    ........
    ........
    ........
    ........
    ........
    @@.@@@..
    .@@..@@.
    .@@..@@.
    .@@..@@.
    .@@..@@.
    .@@..@@.
    .....@@.
    .....@@.

# [Ƣ] LATIN CAPITAL LETTER OI
u+01a2:
    ........
    ........
    ........
    .@@@..@@
    @@.@@@@@
    @@.@@.@@
    @@.@@.@@
    @@.@@.@@
    @@.@@.@@
    @@.@@.@@
    @@.@@.@@
    .@@@..@@
    ......@@
    ......@@

# [ƣ] LATIN SMALL LETTER OI
u+01a3:
    ........
    ........
    ........
    ........
    ........
    ........
    .@@@..@@
    @@.@@@@@
    @@.@@.@@
    @@.@@.@@
    @@.@@.@@
    .@@@..@@
    ......@@
    ......@@

# [Ƥ] LATIN CAPITAL LETTER P WITH HOOK
u+01a4:
    ........
    ........
    ........
    .@@@@@@.
    @.@@..@@
    @.@@..@@
    ..@@..@@
    ..@@@@@.
    ..@@....
    ..@@....
    ..@@....
    .@@@@...
    ........
    ........

# [ƥ] LATIN SMALL LETTER P WITH HOOK
u+01a5:
    ........
    ........
    ........
    ..@@@...
    .@@.@@..
    .@@.....
    .@@@@@..
    .@@..@@.
    .@@..@@.
    .@@..@@.
    .@@..@@.
    .@@@@@..
    .@@.....
    @@@@....

# [Ʀ] LATIN LETTER YR
u+01a6:
    ........
    ........
    ........
    @@@@....
    .@@.....
    .@@@@@..
    .@@..@@.
    .@@..@@.
    .@@@@@..
    .@@@@...
    .@@.@@..
    @@@..@@.
    .....@@.
    ........

# [ƪ] LATIN LETTER REVERSED ESH LOOP
u+01aa:
    ........
    ........
    ........
    .@@@....
    @@.@@...
    .@@@@...
    ...@@...
    ...@@...
    ...@@...
    ...@@...
    ...@@...
    ...@@...
    ...@@.@@
    ....@@@.

# [ƫ] LATIN SMALL LETTER T WITH PALATAL HOOK
u+01ab:
    ........
    ........
    ........
    ...@....
    ..@@....
    ..@@....
    @@@@@@..
    ..@@....
    ..@@....
    ..@@....
    ..@@.@@.
    ...@@@..
    .@@.@@..
    ..@@@...


# [Ƭ] LATIN CAPITAL LETTER T WITH HOOK
u+01ac:
    ........
    ........
    ........
    .@@@@@@.
    @@@@@@@.
    @..@@.@.
    .@.@@...
    ...@@...
    ...@@...
    ...@@...
    ...@@...
    ..@@@@..
    ........
    ........


# [ƭ] LATIN SMALL LETTER T WITH HOOK
u+01ad:
    ........
    ........
    ........
    ...@@@..
    ..@@.@@.
    ..@@....
    @@@@@@..
    ..@@....
    ..@@....
    ..@@....
    ..@@.@@.
    ...@@@..
    ........
    ........


# [Ʈ] LATIN CAPITAL LETTER T WITH RETROFLEX HOOK
u+01ae:
    ........
    ........
    ........
    .@@@@@@.
    .@@@@@@.
    .@.@@.@.
    ...@@...
    ...@@...
    ...@@...
    ...@@...
    ...@@...
    ...@@...
    ...@@...
    ....@@@.


# [ƻ] LATIN LETTER TWO WITH STROKE
u+01bb:
    ........
    ........
    ........
    .@@@@@..
    @@...@@.
    .....@@.
    ....@@..
    .@@@@@@.
    ..@@....
    .@@.....
    @@...@@.
    @@@@@@@.
    ........
    ........


# [Ƽ] LATIN CAPITAL LETTER TONE FIVE
u+01bc:
    ........
    ........
    ........
    @@@@@@@.
    .@@.....
    .@@.....
    .@@@@...
    ....@@..
    .....@@.
    .....@@.
    .@@..@@.
    ..@@@@..
    ........
    ........


# [ƽ] LATIN SMALL LETTER TONE FIVE
u+01bd:
    ........
    ........
    ........
    ........
    ........
    ........
    @@@@@@@.
    .@@.....
    .@@@@@..
    .....@@.
    .@@..@@.
    ..@@@@..
    ........
    ........


# [ƿ] LATIN LETTER WYNN
u+01bf:
    ........
    ........
    ........
    ........
    ........
    ........
    @@.@@@..
    .@@..@@.
    .@@..@@.
    .@@.@@..
    .@@@@...
    .@@@....
    .@@.....
    @@@@....


# [ǀ] LATIN LETTER DENTAL CLICK
u+01c0:
    ........
    ........
    ........
    ...@@...
    ...@@...
    ...@@...
    ...@@...
    ...@@...
    ...@@...
    ...@@...
    ...@@...
    ...@@...
    ........
    ........


# [ǁ] LATIN LETTER LATERAL CLICK
u+01c1:
    ........
    ........
    ........
    .@@.@@..
    .@@.@@..
    .@@.@@..
    .@@.@@..
    .@@.@@..
    .@@.@@..
    .@@.@@..
    .@@.@@..
    .@@.@@..
    ........
    ........


# [ǂ] LATIN LETTER ALVEOLAR CLICK
u+01c2:
    ........
    ........
    ........
    ...@@...
    ...@@...
    ...@@...
    .@@@@@@.
    ...@@...
    .@@@@@@.
    ...@@...
    ...@@...
    ...@@...
    ........
    ........


# [Ǆ] LATIN CAPITAL LETTER DZ WITH CARON
u+01c4:
    .....@.@
    ......@.
    ........
    @@@..@@@
    @@.@..@@
    @@.@..@@
    @@.@..@.
    @@.@..@.
    @@.@..@.
    @@.@.@@.
    @@.@.@@.
    @@@..@@@
    ........
    ........


# [ǅ] LATIN CAPITAL LETTER D WITH SMALL LETTER Z WITH CARON
u+01c5:
    ........
    ........
    ........
    @@@@.@.@
    @@.@@.@.
    @@.@@...
    @@.@@@@@
    @@.@@..@
    @@.@@.@.
    @@.@@.@.
    @@.@@@..
    @@@@.@@@
    ........
    ........


# [ǆ] LATIN SMALL LETTER DZ WITH CARON
u+01c6:
    ........
    ........
    ........
    ..@@.@.@
    ..@@..@.
    ..@@....
    .@@@.@@@
    @.@@...@
    @.@@..@@
    @.@@.@@.
    @.@@.@..
    .@@@.@@@
    ........
    ........

# [Ǉ] LATIN CAPITAL LETTER LJ
u+01c7:
    ........
    ........
    ........
    @@@@.@@@
    .@@...@@
    .@@...@@
    .@@...@@
    .@@.@.@@
    .@@.@.@@
    @@@@@.@@
    ......@@
    ....@@@.
    ........
    ........


# [ǈ] LATIN CAPITAL LETTER L WITH SMALL LETTER J
u+01c8:
    ........
    ........
    ........
    @@@@..@@
    .@@...@@
    .@@.....
    .@@..@@@
    .@@...@@
    .@@...@@
    .@@.@.@@
    .@@.@.@@
    @@@@@.@@
    ......@@
    ....@@@.


# [ǉ] LATIN SMALL LETTER LJ
u+01c9:
    ........
    ........
    ........
    @@@...@@
    .@@...@@
    .@@.....
    .@@..@@@
    .@@...@@
    .@@...@@
    .@@...@@
    .@@...@@
    @@@@..@@
    ......@@
    ....@@@.


# [Ǌ] LATIN CAPITAL LETTER NJ
u+01ca:
    ........
    ........
    ........
    @@.@.@@@
    @@.@..@@
    @@@@..@@
    @@@@..@@
    @@@@..@@
    @@.@..@@
    @@.@..@@
    @@.@..@@
    ....@@@.
    ........
    ........


# [ǋ] LATIN CAPITAL LETTER N WITH SMALL LETTER J
u+01cb:
    ........
    ........
    ........
    @@.@..@@
    @@.@..@@
    @@@@....
    @@@@.@@@
    @@@@..@@
    @@@@..@@
    @@.@..@@
    @@.@..@@
    @@.@..@@
    ......@@
    ...@@@@.


# [ǌ] LATIN SMALL LETTER NJ
u+01cc:
    ........
    ........
    ........
    ......@@
    ......@@
    ........
    @.@@.@@@
    @@.@@.@@
    @@.@@.@@
    @@.@@.@@
    @@.@@.@@
    @@.@@.@@
    ......@@
    ...@@@@.


# [Ǳ] LATIN CAPITAL LETTER DZ
u+01f1:
    ........
    ........
    ........
    @@@..@@@
    @@.@..@@
    @@.@..@@
    @@.@..@.
    @@.@..@.
    @@.@..@.
    @@.@.@@.
    @@.@.@@.
    @@@..@@@
    ........
    ........


# [ǲ] LATIN CAPITAL LETTER D WITH SMALL LETTER Z
u+01f2:
    ........
    ........
    ........
    @@@.....
    @@.@....
    @@.@....
    @@.@.@@@
    @@.@...@
    @@.@..@@
    @@.@.@@.
    @@.@.@..
    @@@..@@@
    ........
    ........


# [ǳ] LATIN SMALL LETTER DZ
u+01f3:
    ........
    ........
    ........
    ..@@....
    ..@@....
    ..@@....
    .@@@.@@@
    @.@@...@
    @.@@..@@
    @.@@.@@.
    @.@@.@..
    .@@@.@@@
    ........
    ........


# [Ƕ] LATIN CAPITAL LETTER HWAIR
u+01f6:
    ........
    ........
    ........
    @@.@@...
    @@.@@...
    @@.@@...
    @@.@@.@@
    @@@@@.@@
    @@.@@.@@
    @@.@@.@@
    @@.@@.@@
    @@..@@@.
    ........
    ........



# [Ƿ] LATIN CAPITAL LETTER WYNN
u+01f7:
    ........
    ........
    ........
    @@@@@@..
    .@@..@@.
    .@@..@@.
    .@@..@@.
    .@@.@@..
    .@@@@...
    .@@@....
    .@@.....
    .@@.....
    .@@.....
    @@@.....


# [ȣ] LATIN SMALL LETTER OU
u+0223:
    ........
    ........
    ........
    ..@..@..
    .@@..@@.
    .@@..@@.
    .@@..@@.
    ..@@@@..
    .@@..@@.
    .@@..@@.
    .@@..@@.
    ..@@@@..
    ........
    ........


# [Ȥ] LATIN CAPITAL LETTER Z WITH HOOK
u+0224:
    ........
    ........
    ........
    @@@@@@@.
    @@...@@.
    @...@@..
    ...@@...
    ..@@....
    .@@.....
    @@......
    @@......
    @@@@@@..
    .....@@.
    ....@@..


# [ȥ] LATIN SMALL LETTER Z WITH HOOK
u+0225:
    ........
    ........
    ........
    ........
    ........
    ........
    @@@@@@@.
    @@..@@..
    ...@@...
    ..@@....
    .@@.....
    @@@@@@..
    .....@@.
    ....@@..


# [ɕ] LATIN SMALL LETTER C WITH CURL
u+0255:
    ........
    ........
    ........
    ........
    ........
    ........
    .@@@@@..
    @@...@@.
    @@......
    @@.@@@..
    @@@..@@.
    .@@@@@..
    @.......
    ........


# [ɚ] LATIN SMALL LETTER SCHWA WITH HOOK
u+025a:
    ........
    ........
    ........
    ........
    ........
    ........
    ..@@@.@@
    .@@.@@..
    ...@.@@.
    ..@..@@.
    .@@.@@..
    ..@@@...
    ........
    ........


# [ɝ] LATIN SMALL LETTER REVERSED OPEN E WITH HOOK
u+025d:
    ........
    ........
    ........
    ........
    ........
    ........
    .@@@@.@.
    @@..@@.@
    ..@@@..@
    ....@@..
    @@..@@..
    .@@@@...
    ........
    ........


# [ɞ] LATIN SMALL LETTER CLOSED REVERSED OPEN E
u+025e:
    ........
    ........
    ........
    ........
    ........
    ........
    .@@@@@..
    @@...@@.
    @@.@@@..
    @@...@@.
    @@...@@.
    .@@@@@..
    ........
    ........

# [ɠ] LATIN SMALL LETTER G WITH HOOK
u+0260:
    ........
    ........
    ........
    ........
    .....@@.
    ....@@.@
    .@@@@@..
    @@..@@..
    @@..@@..
    @@..@@..
    @@..@@..
    .@@@@@..
    ....@@..
    .@@@@...


# [ɢ] LATIN LETTER SMALL CAPITAL G
u+0262:
    ........
    ........
    ........
    ........
    ........
    ........
    .@@@@@..
    @@...@@.
    @@......
    @@..@@@.
    @@...@@.
    .@@@@.@.
    ........
    ........

# [ɤ] LATIN SMALL LETTER RAMS HORN
u+0264:
    ........
    ........
    ........
    ........
    ........
    ........
    @@...@@.
    .@@.@@..
    ..@@@...
    ..@@@...
    .@@.@@..
    ..@@@...
    ........
    ........


# [ɦ] LATIN SMALL LETTER H WITH HOOK
u+0266:
    ........
    ........
    ........
    ..@@@...
    .@@.@@..
    .@@.....
    .@@.@@..
    .@@@.@@.
    .@@..@@.
    .@@..@@.
    .@@..@@.
    @@@..@@.
    ........
    ........


# [ɧ] LATIN SMALL LETTER HENG WITH HOOK
u+0267:
    ........
    ........
    ........
    ..@@@...
    .@@.@@..
    .@@.....
    .@@.@@..
    .@@@.@@.
    .@@..@@.
    .@@..@@.
    .@@..@@.
    @@@..@@.
    .....@@.
    ...@@@..



# [ɫ] LATIN SMALL LETTER L WITH MIDDLE TILDE
u+026b:
    ........
    ........
    ........
    ..@@@...
    ...@@...
    ...@@...
    .@@@@.@@
    @@.@@@@.
    ...@@...
    ...@@...
    ...@@...
    ..@@@@..
    ........
    ........


# [ɬ] LATIN SMALL LETTER L WITH BELT
u+026c:
    ........
    ........
    ........
    ..@@@...
    ...@@...
    ...@@...
    .@@@@...
    .@.@@...
    ..@@@@@.
    ...@@...
    ...@@...
    ..@@@@..
    ........
    ........


# [ɭ] LATIN SMALL LETTER L WITH RETROFLEX HOOK
u+026d:
    ........
    ........
    ........
    ..@@@...
    ...@@...
    ...@@...
    ...@@...
    ...@@...
    ...@@...
    ...@@...
    ...@@...
    ...@@...
    ...@@.@@
    ....@@@.


# [ɰ] LATIN SMALL LETTER TURNED M WITH LONG LEG
u+0270:
    ........
    ........
    ........
    ........
    ........
    ........
    @@...@@.
    @@.@.@@.
    @@.@.@@.
    @@.@.@@.
    @@@@@@@.
    .@@.@@@.
    .....@@.
    .....@@.



# [ɱ] LATIN SMALL LETTER M WITH HOOK
u+0271:
    ........
    ........
    ........
    ........
    ........
    ........
    @@@.@@..
    @@@@@@@.
    @@.@.@@.
    @@.@.@@.
    @@.@.@@.
    @@...@@.
    .....@@.
    ...@@@..


# [ɳ] LATIN SMALL LETTER N WITH RETROFLEX HOOK
u+0273:
    ........
    ........
    ........
    ........
    ........
    ........
    @@.@@@..
    .@@..@@.
    .@@..@@.
    .@@..@@.
    .@@..@@.
    .@@..@@.
    .....@@.
    ......@@


# [ɴ] LATIN LETTER SMALL CAPITAL N
u+0274:
    ........
    ........
    ........
    ........
    ........
    ........
    @@...@@.
    @@@..@@.
    @@@@.@@.
    @@.@@@@.
    @@..@@@.
    @@...@@.
    ........
    ........


# [ɶ] LATIN LETTER SMALL CAPITAL OE
u+0276:
    ........
    ........
    ........
    ........
    ........
    ........
    .@@.@@@.
    @@.@@...
    @@.@@@@.
    @@.@@...
    @@.@@...
    .@@.@@@.
    ........
    ........


# [ɸ] LATIN SMALL LETTER PHI
u+0278:
    ........
    ........
    ........
    ........
    ...@....
    ...@....
    .@@@@@..
    @@.@.@@.
    @@.@.@@.
    @@.@.@@.
    @@.@.@@.
    .@@@@@..
    ...@....
    ...@....



# [ɻ] LATIN SMALL LETTER TURNED R WITH HOOK
u+027b:
    ........
    ........
    ........
    ........
    ........
    ........
    ...@@@@.
    ....@@..
    ....@@..
    @@..@@..
    @@.@@@..
    .@@.@@..
    ....@@.@
    .....@@.



# [ɼ] LATIN SMALL LETTER R WITH LONG LEG
u+027c:
    ........
    ........
    ........
    ........
    ........
    ........
    @@.@@@..
    .@@@.@@.
    .@@..@@.
    .@@.....
    .@@.....
    .@@.....
    .@@.....
    @@@@....


# [ɽ] LATIN SMALL LETTER R WITH TAIL
u+027d:
    ........
    ........
    ........
    ........
    ........
    ........
    @@.@@@..
    .@@@.@@.
    .@@..@@.
    .@@.....
    .@@.....
    .@@.....
    .@@.@@..
    ..@@@...


# [ɾ] LATIN SMALL LETTER R WITH FISHHOOK
u+027e:
    ........
    ........
    ........
    ........
    ........
    ........
    ..@@@@..
    .@@..@@.
    .@@..@@.
    .@@.....
    .@@.....
    @@@@....
    ........
    ........


# [ʀ] LATIN LETTER SMALL CAPITAL R
u+0280:
    ........
    ........
    ........
    ........
    ........
    ........
    @@@@@@..
    .@@..@@.
    .@@@@@..
    .@@.@@..
    .@@..@@.
    @@@..@@.
    ........
    ........


# [ʂ] LATIN SMALL LETTER S WITH HOOK
u+0282:
    ........
    ........
    ........
    ........
    ........
    ........
    .@@@@@..
    @@...@@.
    .@@@....
    ...@@@..
    @@...@@.
    @@@@@@..
    @@......
    .@@@....


# [ʄ] LATIN SMALL LETTER DOTLESS J WITH STROKE AND HOOK
u+0284:
    ........
    ........
    ........
    ....@@@.
    ...@@.@@
    ...@@..@
    ...@@...
    ...@@...
    ...@@...
    ...@@...
    ..@@@@..
    ...@@...
    @@.@@...
    .@@@....


# [ʅ] LATIN SMALL LETTER SQUAT REVERSED ESH
u+0285:
    ........
    ........
    ........
    ........
    ........
    .@@@....
    @@.@@...
    ...@@...
    ...@@...
    ...@@...
    ...@@.@@
    ....@@@.
    ........
    ........



# [ʆ] LATIN SMALL LETTER ESH WITH CURL
u+0286:
    ........
    ........
    ........
    ........
    ........
    ....@@@.
    ...@@.@@
    ...@@...
    ...@@...
    ...@@...
    ...@@...
    .@@@@@@.
    @@.@@...
    .@@@....


# [ʈ] LATIN SMALL LETTER T WITH RETROFLEX HOOK
u+0288:
    ........
    ........
    ........
    ...@....
    ..@@....
    ..@@....
    @@@@@@..
    ..@@....
    ..@@....
    ..@@....
    ..@@....
    ..@@....
    ..@@.@@.
    ...@@@..


# [ʏ] LATIN LETTER SMALL CAPITAL Y
u+028f:
    ........
    ........
    ........
    ........
    ........
    ........
    .@@..@@.
    .@@..@@.
    ..@@@@..
    ...@@...
    ...@@...
    ..@@@@..
    ........
    ........


# [ʐ] LATIN SMALL LETTER Z WITH RETROFLEX HOOK
u+0290:
    ........
    ........
    ........
    ........
    ........
    ........
    @@@@@@@.
    @@..@@..
    ...@@...
    ..@@....
    .@@..@@.
    @@@@@@@.
    .....@@.
    ......@@



# [ʑ] LATIN SMALL LETTER Z WITH CURL
u+0291:
    ........
    ........
    ........
    ........
    ........
    ........
    @@@@@@@.
    @@..@@..
    ...@@...
    ..@@.@@.
    .@@.@.@@
    @@@@@@@.
    ...@....
    ........


# [ʗ] LATIN LETTER STRETCHED C
u+0297:
    ........
    ........
    ........
    ........
    ........
    ........
    .@@@@@..
    @@...@@.
    @@......
    @@......
    @@......
    @@......
    @@...@@.
    .@@@@@..


# [ʘ] LATIN LETTER BILABIAL CLICK
u+0298:
    ........
    ........
    ........
    ..@@@@..
    .@@..@@.
    @@....@@
    @@....@@
    @@.@@.@@
    @@....@@
    @@....@@
    .@@..@@.
    ..@@@@..
    ........
    ........


# [ʙ] LATIN LETTER SMALL CAPITAL B
u+0299:
    ........
    ........
    ........
    ........
    ........
    ........
    @@@@@@..
    .@@..@@.
    .@@@@@..
    .@@..@@.
    .@@..@@.
    @@@@@@..
    ........
    ........


# [ʚ] LATIN SMALL LETTER CLOSED OPEN E
u+029a:
    ........
    ........
    ........
    ........
    ........
    ........
    .@@@@@..
    @@...@@.
    .@@@.@@.
    @@...@@.
    @@...@@.
    .@@@@@..
    ........
    ........


# [ʛ] LATIN LETTER SMALL CAPITAL G WITH HOOK
u+029b:
    ........
    ........
    ........
    ........
    ........
    ......@@
    .@@@@@@.
    @@...@@.
    @@......
    @@..@@@.
    @@...@@.
    .@@@@.@.
    ........
    ........


# [ʜ] LATIN LETTER SMALL CAPITAL H
u+029c:
    ........
    ........
    ........
    ........
    ........
    ........
    @@...@@.
    @@...@@.
    @@@@@@@.
    @@...@@.
    @@...@@.
    @@...@@.
    ........
    ........


# [ʝ] LATIN SMALL LETTER J WITH CROSSED-TAIL
u+029d:
    ........
    ........
    ........
    ....@@..
    ....@@..
    ........
    ...@@@..
    ....@@..
    ....@@..
    ....@@..
    ....@@..
    .@@@@@@.
    @@..@@..
    .@@@@...


# [ʟ] LATIN LETTER SMALL CAPITAL L
u+029f:
    ........
    ........
    ........
    ........
    ........
    ........
    @@@@....
    .@@.....
    .@@.....
    .@@...@.
    .@@..@@.
    @@@@@@@.
    ........
    ........


# [ʠ] LATIN SMALL LETTER Q WITH HOOK
u+02a0:
    ........
    ........
    ........
    ........
    .....@@.
    ....@@.@
    .@@@@@..
    @@..@@..
    @@..@@..
    @@..@@..
    @@..@@..
    .@@@@@..
    ....@@..
    ...@@@@.


# [ʣ] LATIN SMALL LETTER DZ DIGRAPH
u+02a3:
    ........
    ........
    ........
    ..@@@...
    ...@@...
    ...@@...
    .@@@@@@@
    @@.@@..@
    @@.@@.@.
    @@.@@.@.
    @@.@@@..
    .@@.@@@@
    ........
    ........



# [ʤ] LATIN SMALL LETTER DEZH DIGRAPH
u+02a4:
    ........
    ........
    ........
    ..@@@...
    ...@@...
    ...@@...
    .@@@@@@@
    @@.@@.@@
    @@.@@.@@
    @@.@@@@.
    @@.@@.@@
    .@@.@.@@
    ......@@
    ....@@@.


# [ʥ] LATIN SMALL LETTER DZ DIGRAPH WITH CURL
u+02a5:
    ........
    ........
    ........
    ..@@@...
    ...@@...
    ...@@...
    .@@@@@@@
    @@.@@..@
    @@.@@.@.
    @@.@@.@@
    @@.@@@.@
    .@@.@@@@
    .....@..
    ........


# [ʦ] LATIN SMALL LETTER TS DIGRAPH
u+02a6:
    ........
    ........
    ........
    ..@.....
    .@@.....
    .@@.....
    @@@@.@@@
    .@@.@@..
    .@@..@@.
    .@@...@@
    .@@...@@
    ..@@@@@.
    ........
    ........


# [ʧ] LATIN SMALL LETTER TESH DIGRAPH
u+02a7:
    ........
    ........
    ........
    ..@..@@@
    .@@.@@..
    .@@.@@..
    @@@@@@..
    .@@.@@..
    .@@.@@..
    .@@.@@..
    .@@.@@..
    ..@@@@..
    ....@@..
    ..@@@...


# [ʨ] LATIN SMALL LETTER TC DIGRAPH WITH CURL
u+02a8:
    ........
    ........
    ........
    ..@.....
    .@@.....
    .@@.....
    @@@@.@@.
    .@@.@@.@
    .@@.@@..
    .@@.@@@.
    .@@.@@.@
    ..@@.@@.
    ........
    ........


# [ʩ] LATIN SMALL LETTER FENG DIGRAPH
u+02a9:
    ........
    ........
    ........
    .@@@....
    @@.@@...
    @@......
    @@@@@@@.
    @@.@@.@@
    @@.@@.@@
    @@.@@.@@
    @@.@@.@@
    @@.@@.@@
    ......@@
    ....@@@.


# [ʪ] LATIN SMALL LETTER LS DIGRAPH
u+02aa:
    ........
    ........
    ........
    @@@.....
    .@@.....
    .@@.....
    .@@..@@@
    .@@.@@..
    .@@..@@.
    .@@...@@
    .@@...@@
    @@@@@@@.
    ........
    ........


# [ʫ] LATIN SMALL LETTER LZ DIGRAPH
u+02ab:
    ........
    ........
    ........
    @@@.....
    .@@.....
    .@@.....
    .@@.@@@@
    .@@.@.@@
    .@@...@@
    .@@..@@.
    .@@.@@.@
    @@@@@@@@
    ........
    ........


# [ʬ] LATIN LETTER BILABIAL PERCUSSIVE
u+02ac:
    ........
    ........
    ........
    @@...@@.
    @@.@.@@.
    .@@@@@..
    .@@.@@..
    ..@.@...
    @@.@.@@.
    .@@@@@..
    .@@.@@..
    ..@.@...
    ........
    ........


# [ʭ] LATIN LETTER BIDENTAL PERCUSSIVE
u+02ad:
    ........
    ........
    ........
    @@@@@@@.
    @@...@@.
    @@...@@.
    @@...@@.
    ........
    @@@@@@@.
    @@...@@.
    @@...@@.
    @@...@@.
    ........
    ........


# [ʹ] GREEK NUMERAL SIGN
u+0374:
    ........
    ..@@....
    ..@.....
    .@......
    ........
    ........
    ........
    ........
    ........
    ........
    ........
    ........
    ........
    ........


# [͵] GREEK LOWER NUMERAL SIGN
u+0375:
    ........
    ........
    ........
    ........
    ........
    ........
    ........
    ........
    ........
    ........
    ...@....
    ..@.....
    .@@.....
    ........


# [ͺ] GREEK YPOGEGRAMMENI
u+037a:
    ........
    ........
    ........
    ........
    ........
    ........
    ........
    ........
    ........
    ........
    ........
    ..@@....
    ..@@.@..
    ...@@...


# [Ε] GREEK CAPITAL LETTER EPSILON
u+0395:
    ........
    ........
    ........
    @@@@@@@.
    .@@..@@.
    .@@...@.
    .@@.@...
    .@@@@...
    .@@.@...
    .@@...@.
    .@@..@@.
    @@@@@@@.
    ........
    ........



# [Ζ] GREEK CAPITAL LETTER ZETA
u+0396:
    ........
    ........
    ........
    @@@@@@@.
    @@...@@.
    @....@@.
    ....@@..
    ...@@...
    ..@@....
    .@@...@.
    @@...@@.
    @@@@@@@.
    ........
    ........



# [Ι] GREEK CAPITAL LETTER IOTA
u+0399:
    ........
    ........
    ........
    ..@@@@..
    ...@@...
    ...@@...
    ...@@...
    ...@@...
    ...@@...
    ...@@...
    ...@@...
    ..@@@@..
    ........
    ........



# [Κ] GREEK CAPITAL LETTER KAPPA
u+039a:
    ........
    ........
    ........
    @@@..@@.
    .@@..@@.
    .@@..@@.
    .@@.@@..
    .@@@@...
    .@@.@@..
    .@@..@@.
    .@@..@@.
    @@@..@@.
    ........
    ........


# [Ξ] GREEK CAPITAL LETTER XI
u+039e:
    ........
    ........
    ........
    @@@@@@@.
    @@@@@@@.
    @.....@.
    ........
    .@@@@@..
    ........
    @.....@.
    @@@@@@@.
    @@@@@@@.
    ........
    ........


# [Ρ] GREEK CAPITAL LETTER RHO
u+03a1:
    ........
    ........
    ........
    @@@@@@..
    .@@..@@.
    .@@..@@.
    .@@..@@.
    .@@@@@..
    .@@.....
    .@@.....
    .@@.....
    @@@@....
    ........
    ........



# [Τ] GREEK CAPITAL LETTER TAU
u+03a4:
    ........
    ........
    ........
    .@@@@@@.
    .@@@@@@.
    .@.@@.@.
    ...@@...
    ...@@...
    ...@@...
    ...@@...
    ...@@...
    ..@@@@..
    ........
    ........


# [Υ] GREEK CAPITAL LETTER UPSILON
u+03a5:
    ........
    ........
    ........
    .@@..@@.
    .@@..@@.
    .@@..@@.
    .@@..@@.
    ..@@@@..
    ...@@...
    ...@@...
    ...@@...
    ..@@@@..
    ........
    ........



# [Ψ] GREEK CAPITAL LETTER PSI
u+03a8:
    ........
    ........
    ........
    @@.@.@@.
    @@.@.@@.
    @@.@.@@.
    @@.@.@@.
    @@.@.@@.
    @@.@.@@.
    .@@@@@..
    ...@....
    ..@@@...
    ........
    ........


# [ϐ] GREEK BETA SYMBOL
u+03d0:
    ........
    ........
    ........
    ..@@@@..
    .@@..@@.
    .@@..@@.
    .@@.@@..
    .@@@@@..
    .@@..@@.
    .@@..@@.
    .@@..@@.
    ..@@@@..
    ........
    ........


# [ϖ] GREEK PI SYMBOL
u+03d6:
    ........
    ........
    ........
    ........
    ........
    ........
    @@@@@@@.
    .@@.@@..
    @@...@@.
    @@.@.@@.
    @@.@.@@.
    .@@.@@..
    ........
    ........

# [ϗ] GREEK KAI SYMBOL
u+03d7:
    ........
    ........
    ........
    ........
    ........
    ........
    .@...@@.
    @.@..@@.
    ..@.@@..
    ..@@@...
    .@@.@...
    @@..@.@.
    ....@@..
    ...@@...


# [Ϛ] GREEK LETTER STIGMA
u+03da:
    ........
    ........
    ........
    ..@@@@..
    .@@..@@.
    @@....@.
    @@......
    @@......
    @@......
    .@@.....
    ..@@@@..
    .....@@.
    ...@@@..
    ........


# [ϛ] GREEK SMALL LETTER STIGMA
u+03db:
    ........
    ........
    ........
    ........
    ........
    ........
    .@@@@@@.
    @@......
    @@......
    @@......
    @@......
    .@@@@@..
    .....@@.
    ...@@@..


# [ϝ] GREEK SMALL LETTER DIGAMMA
u+03dd:
    ........
    ........
    ........
    ........
    ........
    ........
    .@@@@@@.
    ..@@..@.
    ..@@....
    ..@@@@..
    ..@@.@..
    ..@@....
    ..@@....
    ..@@....


# [Ϟ] GREEK LETTER KOPPA
u+03de:
    ........
    ........
    ........
    .@@.....
    ..@@....
    ..@@....
    .@@...@@
    @@@@@@@@
    @@...@@.
    ....@@..
    ....@@..
    .....@@.
    ........
    ........


# [ϟ] GREEK SMALL LETTER KOPPA
u+03df:
    ........
    ........
    ........
    ..@@....
    ..@@....
    .@@.....
    .@@.....
    @@@@@@@.
    ....@@..
    ....@@..
    ...@@...
    ...@@...
    ........
    ........


# [Ϡ] GREEK LETTER SAMPI
u+03e0:
    ........
    ........
    ........
    .@@@@...
    @.@@@@..
    ..@@.@@.
    ..@..@@.
    ....@.@@
    ....@.@@
    ...@@.@@
    ...@@.@@
    ...@@.@@
    ......@@
    ......@.


# [ϡ] GREEK SMALL LETTER SAMPI
u+03e1:
    ........
    ........
    ........
    ........
    ........
    .@@.....
    ..@@....
    ...@@...
    ..@.@@..
    .@..@@..
    ...@.@@.
    ..@..@@.
    .....@@.
    ......@.



# [Ϣ] COPTIC CAPITAL LETTER SHEI
u+03e2:
    ........
    ........
    ........
    @@.@@.@@
    @@.@@.@@
    @@.@@.@@
    @@.@@.@@
    @@.@@.@@
    @@.@@.@@
    @@.@@.@@
    @@.@@.@@
    .@@.@@.@
    ......@@
    ..@@@@@.


# [ϣ] COPTIC SMALL LETTER SHEI
u+03e3:
    ........
    ........
    ........
    ........
    ........
    ........
    @@.@@.@@
    @@.@@.@@
    @@.@@.@@
    @@.@@.@@
    @@.@@.@@
    .@@.@@.@
    ......@@
    .@@@@@@.


# [Ϥ] COPTIC CAPITAL LETTER FEI
u+03e4:
    ........
    ........
    ........
    .@@@.@@.
    @@.@.@@.
    @@...@@.
    @@...@@.
    .@@@@@@.
    .....@@.
    .....@@.
    .....@@.
    .....@@.
    ........
    ........


# [ϥ] COPTIC SMALL LETTER FEI
u+03e5:
    ........
    ........
    ........
    ..@@.@@.
    .@@..@@.
    .@@..@@.
    .@@..@@.
    ..@@@@@.
    .....@@.
    .....@@.
    .....@@.
    .....@@.
    ........
    ........


# [Ϧ] COPTIC CAPITAL LETTER KHEI
u+03e6:
    ........
    ........
    ........
    @@......
    @@......
    @@......
    @@......
    @@@@@@..
    @@...@@.
    @@...@@.
    @@...@@.
    @@...@@.
    .....@@.
    .@@@@@..


# [ϧ] COPTIC SMALL LETTER KHEI
u+03e7:
    ........
    ........
    ........
    ........
    ........
    ....@...
    .@@@@@..
    @@.@.@@.
    .@@..@@.
    .....@@.
    .@@..@@.
    @.@@@@..
    ........
    ........


# [Ϩ] COPTIC CAPITAL LETTER HORI
u+03e8:
    ........
    ........
    ........
    .@@@@@..
    @@...@@.
    @@...@@.
    .....@@.
    ..@@@@..
    .@@.....
    @@...@@.
    @@...@@.
    .@@@@@..
    ........
    ........


# [ϩ] COPTIC SMALL LETTER HORI
u+03e9:
    ........
    ........
    ........
    ..@@@@..
    .@@..@@.
    .@@..@@.
    ..@..@@.
    ...@@@..
    .@@@....
    @@....@.
    @@...@@.
    .@@@@@..
    ........
    ........


# [Ϫ] COPTIC CAPITAL LETTER GANGIA
u+03ea:
    ........
    ........
    ........
    @@...@@.
    .@@.@@..
    ..@@@...
    ..@@....
    ..@@@...
    .@@.@@..
    .@@.@@..
    @@...@@.
    @@@@@@@.
    ........
    ........


# [ϫ] COPTIC SMALL LETTER GANGIA
u+03eb:
    ........
    ........
    ........
    ........
    ........
    ........
    @@@.@@@.
    ..@@@...
    ..@@@...
    .@@.@@..
    @@...@@.
    @@@@@@@.
    ........
    ........


# [Ϭ] COPTIC CAPITAL LETTER SHIMA
u+03ec:
    ........
    ........
    ........
    .@@@@@@.
    @@......
    @@..@@..
    @@.@.@@.
    @@...@@.
    @@...@@.
    @@...@@.
    @@...@@.
    .@@@@@..
    ........
    ........


# [ϭ] COPTIC SMALL LETTER SHIMA
u+03ed:
    ........
    ........
    ........
    ........
    ........
    ........
    .@@@@@@.
    @@......
    @@.@@@..
    @@...@@.
    @@...@@.
    .@@@@@..
    ........
    ........


# [Ϯ] COPTIC CAPITAL LETTER DEI
u+03ee:
    ........
    ........
    ........
    ..@@@@..
    ...@@...
    .@@@@@@.
    @..@@..@
    ...@@...
    ...@@...
    ...@@...
    ...@@...
    ..@@@@..
    ........
    ........


# [ϯ] COPTIC SMALL LETTER DEI
u+03ef:
    ........
    ........
    ........
    ...@@...
    ...@@@..
    ...@@...
    .@@@@@@.
    .@.@@...
    ...@@...
    ...@@...
    ..@@@...
    ...@@...
    ........
    ........


# [ϰ] GREEK KAPPA SYMBOL
u+03f0:
    ........
    ........
    ........
    ........
    ........
    ........
    .@...@@.
    @.@.@@..
    ..@@@...
    .@@.@...
    @@..@.@.
    @@...@..
    ........
    ........


# [ϱ] GREEK RHO SYMBOL
u+03f1:
    ........
    ........
    ........
    ........
    ........
    ........
    .@@@@@..
    @@...@@.
    @@...@@.
    @@...@@.
    @@@@@@..
    @@......
    .@@.....
    ..@@@@..



# [Ѡ] CYRILLIC CAPITAL LETTER OMEGA
u+0460:
    ........
    ........
    ........
    .@@.@@..
    @@...@@.
    @@...@@.
    @@.@.@@.
    @@.@.@@.
    @@.@.@@.
    @@.@.@@.
    @@@@@@@.
    .@@.@@..
    ........
    ........


# [ѡ] CYRILLIC SMALL LETTER OMEGA
u+0461:
    ........
    ........
    ........
    ........
    ........
    ........
    .@@.@@..
    @@...@@.
    @@.@.@@.
    @@.@.@@.
    @@@@@@@.
    .@@.@@..
    ........
    ........


# [Ѣ] CYRILLIC CAPITAL LETTER YAT
u+0462:
    ........
    ........
    ........
    ..@@....
    @@@@@@..
    @.@@.@..
    ..@@....
    ..@@@@..
    ..@@.@@.
    ..@@.@@.
    ..@@.@@.
    .@@@@@..
    ........
    ........


# [ѣ] CYRILLIC SMALL LETTER YAT
u+0463:
    ........
    ........
    ........
    ..@@....
    ..@@....
    @@@@@@..
    @.@@.@..
    ..@@....
    ..@@@@..
    ..@@.@@.
    ..@@.@@.
    .@@@@@..
    ........
    ........


# [Ѥ] CYRILLIC CAPITAL LETTER IOTIFIED E
u+0464:
    ........
    ........
    ........
    @@..@@@.
    @@.@@.@@
    @@.@@..@
    @@.@@...
    @@@@@@@.
    @@.@@...
    @@.@@..@
    @@.@@.@@
    @@..@@@.
    ........
    ........


# [ѥ] CYRILLIC SMALL LETTER IOTIFIED E
u+0465:
    ........
    ........
    ........
    ........
    ........
    ........
    @@..@@@@
    @@.@@...
    @@@@@@@.
    @@.@@...
    @@.@@.@@
    @@..@@@.
    ........
    ........


# [Ѧ] CYRILLIC CAPITAL LETTER LITTLE YUS
u+0466:
    ........
    ........
    ........
    ...@....
    ..@@@...
    ..@@@...
    .@@.@@..
    .@@.@@..
    .@@.@@..
    @@@@@@@.
    @@.@.@@.
    @@.@.@@.
    ........
    ........


# [ѧ] CYRILLIC SMALL LETTER LITTLE YUS
u+0467:
    ........
    ........
    ........
    ........
    ........
    ........
    ...@....
    ..@@@...
    .@@.@@..
    .@@@@@..
    @@.@.@@.
    @@.@.@@.
    ........
    ........


# [Ѩ] CYRILLIC CAPITAL LETTER IOTIFIED LITTLE YUS
u+0468:
    ........
    ........
    ........
    @...@...
    @...@@..
    @..@@@..
    @..@.@@.
    @@@@.@@.
    @.@@.@@.
    @.@@@@@@
    @.@.@.@@
    @@@.@.@@
    ........
    ........


# [ѩ] CYRILLIC SMALL LETTER IOTIFIED LITTLE YUS
u+0469:
    ........
    ........
    ........
    ........
    ........
    ........
    @...@...
    @..@@@..
    @@@@.@@.
    @.@@@@@.
    @.@.@.@@
    @@@.@.@@
    ........
    ........



# [Ѫ] CYRILLIC CAPITAL LETTER BIG YUS
u+046a:
    ........
    ........
    ........
    @@@@@@@.
    @@...@@.
    .@@.@@..
    .@@.@@..
    ..@@@...
    .@@@@@..
    @@.@.@@.
    @@.@.@@.
    @@.@.@@.
    ........
    ........


# [ѫ] CYRILLIC SMALL LETTER BIG YUS
u+046b:
    ........
    ........
    ........
    ........
    ........
    ........
    @@@@@@@.
    @@...@@.
    .@@.@@..
    .@@@@@..
    @@.@.@@.
    @@.@.@@.
    ........
    ........


# [Ѭ] CYRILLIC CAPITAL LETTER IOTIFIED BIG YUS
u+046c:
    ........
    ........
    ........
    @@@@@@@@
    @@@...@@
    @.@@.@@.
    @.@@.@@.
    @@@@@@..
    @..@@@..
    @.@@@@@.
    @@@.@.@@
    @@@.@.@@
    ........
    ........


# [ѭ] CYRILLIC SMALL LETTER IOTIFIED BIG YUS
u+046d:
    ........
    ........
    ........
    ........
    ........
    ........
    @.@@@@@@
    @.@...@@
    @..@.@@.
    @@@@@@@.
    @.@.@.@@
    @@@.@.@@
    ........
    ........


# [Ѯ] CYRILLIC CAPITAL LETTER KSI
u+046e:
    ........
    .@@.@@..
    ..@@@...
    ...@....
    .@@@@@..
    @@...@@.
    .....@@.
    .....@@.
    .@@@@@..
    .....@@.
    .....@@.
    .@@@@@..
    @@......
    .@@@@@..


# [ѯ] CYRILLIC SMALL LETTER KSI
u+046f:
    ........
    ........
    .@@.@@..
    ..@@@...
    ...@....
    ........
    .@@@@@..
    @....@@.
    .....@@.
    .@@@@@..
    .....@@.
    .@@@@@..
    @@......
    .@@@@@..


# [Ѱ] CYRILLIC CAPITAL LETTER PSI
u+0470:
    ........
    ........
    ........
    ...@....
    @@.@.@@.
    @@.@.@@.
    @@.@.@@.
    @@.@.@@.
    @@.@.@@.
    .@@@@@..
    ...@....
    ...@....
    ........
    ........


# [ѱ] CYRILLIC SMALL LETTER PSI
u+0471:
    ........
    ........
    ........
    ...@....
    ...@....
    ...@....
    @@.@.@@.
    @@.@.@@.
    @@.@.@@.
    @@.@.@@.
    @@.@.@@.
    .@@@@@..
    ...@....
    ...@....


# [Ѳ] CYRILLIC CAPITAL LETTER FITA
u+0472:
    ........
    ........
    ........
    .@@@@@..
    @@...@@.
    @@...@@.
    @@...@@.
    @@@@@@@.
    @@...@@.
    @@...@@.
    @@...@@.
    .@@@@@..
    ........
    ........



# [ѳ] CYRILLIC SMALL LETTER FITA
u+0473:
    ........
    ........
    ........
    ........
    ........
    ........
    .@@@@@..
    @@...@@.
    @@@@@@@.
    @@...@@.
    @@...@@.
    .@@@@@..
    ........
    ........



# [Ѵ] CYRILLIC CAPITAL LETTER IZHITSA
u+0474:
    ........
    ........
    ........
    @@....@@
    @@...@@.
    @@...@@.
    @@..@@..
    .@@.@@..
    .@@.@@..
    .@@@@...
    ..@@@...
    ..@@....
    ........
    ........

# [ѵ] CYRILLIC SMALL LETTER IZHITSA
u+0475:
    ........
    ........
    ........
    ........
    ........
    ........
    @@....@@
    @@...@@.
    .@@..@@.
    .@@.@@..
    ..@@@...
    ...@....
    ........
    ........


# [Ѹ] CYRILLIC CAPITAL LETTER UK
u+0478:
    ........
    ........
    ........
    .@@@....
    @@.@@...
    @@.@@...
    @@.@@.@@
    @@.@@.@@
    @@.@@.@@
    @@.@@.@@
    @@.@@.@@
    .@@.@@@@
    ......@@
    ...@@@@.


# [ѹ] CYRILLIC SMALL LETTER UK
u+0479:
    ........
    ........
    ........
    ........
    ........
    ........
    .@@@..@@
    @@.@@.@@
    @@.@@.@@
    @@.@@.@@
    @@.@@.@@
    .@@.@@@@
    ......@@
    ...@@@@.


# [Ѻ] CYRILLIC CAPITAL LETTER ROUND OMEGA
u+047a:
    ........
    ........
    ...@....
    .@@@@@..
    @@.@.@@.
    @@...@@.
    @@...@@.
    @@...@@.
    @@...@@.
    @@...@@.
    @@.@.@@.
    .@@@@@..
    ...@....
    ........


# [ѻ] CYRILLIC SMALL LETTER ROUND OMEGA
u+047b:
    ........
    ........
    ........
    ........
    ........
    ...@....
    .@@@@@..
    @@.@.@@.
    @@...@@.
    @@...@@.
    @@.@.@@.
    .@@@@@..
    ...@....
    ........


# [Ѿ] CYRILLIC CAPITAL LETTER OT
u+047e:
    ........
    .@@@@@..
    .@.@.@..
    ........
    .@@.@@..
    @@...@@.
    @@...@@.
    @@.@.@@.
    @@.@.@@.
    @@.@.@@.
    @@@@@@@.
    .@@.@@..
    ........
    ........


# [ѿ] CYRILLIC SMALL LETTER OT
u+047f:
    ........
    ........
    ........
    .@@@@@..
    .@.@.@..
    ........
    .@@.@@..
    @@...@@.
    @@.@.@@.
    @@.@.@@.
    @@@@@@@.
    .@@.@@..
    ........
    ........



# [Ҁ] CYRILLIC CAPITAL LETTER KOPPA
u+0480:
    ........
    ........
    ........
    ..@@@@..
    .@@..@@.
    @@....@.
    @@......
    @@......
    @@......
    @@......
    .@@.....
    ..@@@@..
    ....@@..
    ....@@..


# [ҁ] CYRILLIC SMALL LETTER KOPPA
u+0481:
    ........
    ........
    ........
    ........
    ........
    ........
    .@@@@@..
    @@...@@.
    @@......
    @@......
    @@......
    .@@@@...
    ...@@...
    ...@@...


# [҂] CYRILLIC THOUSANDS SIGN
u+0482:
    ........
    ........
    ........
    .....@@.
    .....@@.
    ..@@@@..
    ....@@@@
    ...@@...
    @@@@....
    ..@@@@..
    .@@.....
    .@@.....
    ........
    ........



# [Ҋ] CYRILLIC CAPITAL LETTER SHORT I WITH TAIL
u+048a:
    .@@.@@..
    ..@@@...
    ........
    @@...@@.
    @@...@@.
    @@..@@@.
    @@.@@@@.
    @@@@@@@.
    @@@@.@@.
    @@@..@@.
    @@...@@.
    @@...@@@
    ......@@
    .......@


# [ҋ] CYRILLIC SMALL LETTER SHORT I WITH TAIL
u+048b:
    ........
    ........
    ........
    .@@.@@..
    ..@@@...
    ........
    @@...@@.
    @@..@@@.
    @@.@@@@.
    @@@@.@@.
    @@@..@@.
    @@...@@@
    ......@@
    .......@



# [Ҍ] CYRILLIC CAPITAL LETTER SEMISOFT SIGN
u+048c:
    ........
    ........
    .@@.....
    @@@@....
    .@@.....
    .@@.....
    .@@.....
    .@@@@@..
    .@@..@@.
    .@@..@@.
    .@@..@@.
    @@@@@@..
    ........
    ........


# [ҍ] CYRILLIC SMALL LETTER SEMISOFT SIGN
u+048d:
    ........
    ........
    ........
    ........
    ........
    .@@.....
    @@@@....
    .@@.....
    .@@.....
    .@@@@@..
    .@@..@@.
    @@@@@@..
    ........
    ........


# [Ҏ] CYRILLIC CAPITAL LETTER ER WITH TICK
u+048e:
    ........
    ........
    ........
    @@@@@@..
    .@@..@@.
    .@@.@@@.
    .@@..@..
    .@@@@.@.
    .@@.....
    .@@.....
    .@@.....
    @@@@....
    ........
    ........


# [ҏ] CYRILLIC SMALL LETTER ER WITH TICK
u+048f:
    ........
    ........
    ........
    ........
    ........
    ........
    @@.@@@..
    .@@..@@.
    .@@..@@.
    .@@.@@@.
    .@@..@..
    .@@@@.@.
    .@@.....
    @@@@....


# [Ҧ] CYRILLIC CAPITAL LETTER PE WITH MIDDLE HOOK
u+04a6:
    ........
    ........
    ........
    @@@@@...
    @@.@@...
    @@.@@...
    @@.@@...
    @@.@@@@.
    @@.@@.@@
    @@.@@.@@
    @@.@@.@@
    @@.@@.@@
    ......@@
    .....@@.


# [ҧ] CYRILLIC SMALL LETTER PE WITH MIDDLE HOOK
u+04a7:
    ........
    ........
    ........
    ........
    ........
    ........
    @@.@@...
    @@.@@...
    @@@@@@@.
    @@.@@.@@
    @@.@@.@@
    @@.@@.@@
    ......@@
    .....@@.


# [Ӆ] CYRILLIC CAPITAL LETTER EL WITH TAIL
u+04c5:
    ........
    ........
    ........
    ..@@@@@.
    .@@..@@.
    .@@..@@.
    .@@..@@.
    .@@..@@.
    .@@..@@.
    .@@..@@.
    .@@..@@.
    @@...@@@
    ......@@
    .......@



# [ӆ] CYRILLIC SMALL LETTER EL WITH TAIL
u+04c6:
    ........
    ........
    ........
    ........
    ........
    ........
    ..@@@@@.
    .@@..@@.
    .@@..@@.
    .@@..@@.
    .@@..@@.
    @@...@@@
    ......@@
    .......@


# [Ӊ] CYRILLIC CAPITAL LETTER EN WITH TAIL
u+04c9:
    ........
    ........
    ........
    @@...@@.
    @@...@@.
    @@...@@.
    @@...@@.
    @@@@@@@.
    @@...@@.
    @@...@@.
    @@...@@.
    @@...@@@
    ......@@
    .......@


# [ӊ] CYRILLIC SMALL LETTER EN WITH TAIL
u+04ca:
    ........
    ........
    ........
    ........
    ........
    ........
    @@...@@.
    @@...@@.
    @@@@@@@.
    @@...@@.
    @@...@@.
    @@...@@@
    ......@@
    .......@


# [Ӎ] CYRILLIC CAPITAL LETTER EM WITH TAIL
u+04cd:
    ........
    ........
    ........
    @@...@@.
    @@@.@@@.
    @@@@@@@.
    @@@@@@@.
    @@.@.@@.
    @@...@@.
    @@...@@.
    @@...@@.
    @@...@@@
    ......@@
    .......@


# [ӎ] CYRILLIC SMALL LETTER EM WITH TAIL
u+04ce:
    ........
    ........
    ........
    ........
    ........
    ........
    @@...@@.
    @@@.@@@.
    @@@@@@@.
    @@.@.@@.
    @@.@.@@.
    @@...@@@
    ......@@
    .......@


# [Ԁ] CYRILLIC CAPITAL LETTER KOMI DE
u+0500:
    ........
    ........
    ........
    ...@@@@.
    ....@@..
    ....@@..
    ....@@..
    .@@@@@..
    @@..@@..
    @@..@@..
    @@..@@..
    .@@@@@@.
    ........
    ........


# [ԁ] CYRILLIC SMALL LETTER KOMI DE
u+0501:
    ........
    ........
    ........
    ...@@@..
    ....@@..
    ....@@..
    ..@@@@..
    .@@.@@..
    @@..@@..
    @@..@@..
    @@..@@..
    .@@@.@@.
    ........
    ........


# [Ԃ] CYRILLIC CAPITAL LETTER KOMI DJE
u+0502:
    ........
    ........
    ........
    ...@@@@.
    ....@@..
    ....@@..
    ....@@..
    .@@@@@..
    @@..@@.@
    @@..@@.@
    @@..@@.@
    .@@@.@@.
    ........
    ........


# [ԃ] CYRILLIC SMALL LETTER KOMI DJE
u+0503:
    ........
    ........
    ........
    ...@@@..
    ....@@..
    ....@@..
    ..@@@@..
    .@@.@@..
    @@..@@.@
    @@..@@.@
    @@..@@.@
    .@@@.@@.
    ........
    ........


# [Ԅ] CYRILLIC CAPITAL LETTER KOMI ZJE
u+0504:
    ........
    ........
    ........
    .@@@@...
    @@..@@..
    @...@@..
    ....@@..
    ..@@@...
    ....@@.@
    ....@@.@
    ....@@.@
    .....@@.
    ........
    ........


# [ԅ] CYRILLIC SMALL LETTER KOMI ZJE
u+0505:
    ........
    ........
    ........
    ........
    ........
    ........
    .@@@@...
    @@..@@..
    ....@@..
    ..@@@..@
    ....@@.@
    .....@@.
    ........
    ........


# [Ԇ] CYRILLIC CAPITAL LETTER KOMI DZJE
u+0506:
    ........
    ........
    ........
    .@@@@@..
    @@...@@.
    @....@@.
    .....@@.
    ..@@@@..
    .....@@.
    .....@@.
    .....@@.
    .....@@@
    ......@@
    .......@



# [ԇ] CYRILLIC SMALL LETTER KOMI DZJE
u+0507:
    ........
    ........
    ........
    ........
    ........
    ........
    .@@@@@..
    @@...@@.
    .....@@.
    ..@@@@..
    .....@@.
    .....@@.
    ......@@
    .......@


# [Ԉ] CYRILLIC CAPITAL LETTER KOMI LJE
u+0508:
    ........
    ........
    ........
    ..@@@@..
    .@@.@@..
    .@@.@@..
    .@@.@@..
    .@@.@@..
    .@@.@@.@
    .@@.@@.@
    .@@.@@.@
    @@...@@.
    ........
    ........


# [ԉ] CYRILLIC SMALL LETTER KOMI LJE
u+0509:
    ........
    ........
    ........
    ........
    ........
    ........
    ..@@@@..
    .@@.@@..
    .@@.@@..
    .@@.@@.@
    .@@.@@.@
    @@...@@.
    ........
    ........


# [Ԋ] CYRILLIC CAPITAL LETTER KOMI NJE
u+050a:
    ........
    ........
    ........
    @@..@@..
    @@..@@..
    @@..@@..
    @@..@@..
    @@@@@@..
    @@..@@.@
    @@..@@.@
    @@..@@.@
    @@...@@.
    ........
    ........


# [ԋ] CYRILLIC SMALL LETTER KOMI NJE
u+050b:
    ........
    ........
    ........
    ........
    ........
    ........
    @@..@@..
    @@..@@..
    @@@@@@.@
    @@..@@.@
    @@..@@.@
    @@...@@.
    ........
    ........


# [Ԍ] CYRILLIC CAPITAL LETTER KOMI SJE
u+050c:
    ........
    ........
    ........
    ..@@@@..
    .@@..@@.
    @@....@.
    @@......
    @@......
    @@..@@@.
    @@...@@.
    .@@..@@.
    ..@@@@..
    ........
    ........


# [ԍ] CYRILLIC SMALL LETTER KOMI SJE
u+050d:
    ........
    ........
    ........
    ........
    ........
    ........
    .@@@@@..
    @@...@@.
    @@......
    @@..@@@.
    @@...@@.
    .@@@@@..
    ........
    ........


# [Ԏ] CYRILLIC CAPITAL LETTER KOMI TJE
u+050e:
    ........
    ........
    ........
    .@@@@@@.
    .@@@@@@.
    .@.@@.@.
    ...@@...
    ...@@...
    ...@@.@@
    ...@@.@@
    ...@@.@@
    ....@@@.
    ........
    ........


# [ԏ] CYRILLIC SMALL LETTER KOMI TJE
u+050f:
    ........
    ........
    ........
    ........
    ........
    ........
    .@@@@@@.
    .@.@@.@.
    ...@@...
    ...@@.@@
    ...@@.@@
    ....@@@.
    ........
    ........


# [ՙ] ARMENIAN MODIFIER LETTER LEFT HALF RING
u+0559:
    ...@@...
    ..@@....
    ..@@....
    ...@@...
    ........
    ........
    ........
    ........
    ........
    ........
    ........
    ........
    ........
    ........


# [՟] ARMENIAN ABBREVIATION MARK
u+055f:
    .@@@....
    .@@.....
    ..@@@@@.
    ........
    ........
    ........
    ........
    ........
    ........
    ........
    ........
    ........
    ........
    ........



# [և] ARMENIAN SMALL LIGATURE ECH YIWN
u+0587:
    ........
    ........
    ........
    @@......
    @@......
    @@......
    @@......
    @@......
    @@..@@..
    @@..@@..
    @@..@@..
    .@@@.@@@
    ........
    ........



# [�] REPLACEMENT CHARACTER
u+fffd:
    ........
    ........
    ..@@@...
    .@@@@@..
    @@...@@.
    @..@..@.
    @@@@..@.
    @@@..@@.
    @@@@@@@.
    @@@..@@.
    .@@@@@..
    ..@@@...
    ........
    ........
